<mxfile host="app.diagrams.net" modified="2024-04-03T07:56:41.264Z" agent="Mozilla/5.0 (X11; Ubuntu; Linux x86_64; rv:124.0) Gecko/20100101 Firefox/124.0" etag="d_0nMyAflh2ICFMTP-mp" version="24.2.1" type="google">
  <diagram name="Page-1" id="zFivP7Q1W1kaPouB1FP-">
    <mxGraphModel grid="1" page="1" gridSize="10" guides="1" tooltips="1" connect="1" arrows="1" fold="1" pageScale="1" pageWidth="827" pageHeight="1169" math="0" shadow="0">
      <root>
        <mxCell id="0" />
        <mxCell id="1" parent="0" />
        <mxCell id="zT2eKqaUpdN-mMis6bii-1" value="Livreurs" style="shape=umlActor;verticalLabelPosition=bottom;verticalAlign=top;html=1;outlineConnect=0;" vertex="1" parent="1">
          <mxGeometry x="130" y="360" width="30" height="60" as="geometry" />
        </mxCell>
        <mxCell id="zT2eKqaUpdN-mMis6bii-2" value="Chefs" style="shape=umlActor;verticalLabelPosition=bottom;verticalAlign=top;html=1;outlineConnect=0;" vertex="1" parent="1">
          <mxGeometry x="130" y="150" width="30" height="60" as="geometry" />
        </mxCell>
        <mxCell id="zT2eKqaUpdN-mMis6bii-5" value="ExpressFood" style="swimlane;whiteSpace=wrap;html=1;" vertex="1" parent="1">
          <mxGeometry x="250" y="80" width="200" height="430" as="geometry" />
        </mxCell>
        <mxCell id="-C5H-mNY8YNuSjXsCCsb-2" value="Décision des plats du jour" style="ellipse;whiteSpace=wrap;html=1;" vertex="1" parent="zT2eKqaUpdN-mMis6bii-5">
          <mxGeometry x="40" y="50" width="120" height="60" as="geometry" />
        </mxCell>
        <mxCell id="-C5H-mNY8YNuSjXsCCsb-3" value="Préparation des plats" style="ellipse;whiteSpace=wrap;html=1;" vertex="1" parent="zT2eKqaUpdN-mMis6bii-5">
          <mxGeometry x="40" y="140" width="120" height="60" as="geometry" />
        </mxCell>
        <mxCell id="-C5H-mNY8YNuSjXsCCsb-4" value="Conditionnement" style="ellipse;whiteSpace=wrap;html=1;" vertex="1" parent="zT2eKqaUpdN-mMis6bii-5">
          <mxGeometry x="40" y="230" width="120" height="60" as="geometry" />
        </mxCell>
        <mxCell id="-C5H-mNY8YNuSjXsCCsb-5" value="Acheminement" style="ellipse;whiteSpace=wrap;html=1;" vertex="1" parent="zT2eKqaUpdN-mMis6bii-5">
          <mxGeometry x="40" y="320" width="120" height="60" as="geometry" />
        </mxCell>
        <mxCell id="-C5H-mNY8YNuSjXsCCsb-6" value="" style="endArrow=classic;html=1;rounded=0;exitX=0.5;exitY=1;exitDx=0;exitDy=0;entryX=0.5;entryY=0;entryDx=0;entryDy=0;" edge="1" parent="zT2eKqaUpdN-mMis6bii-5" source="-C5H-mNY8YNuSjXsCCsb-2" target="-C5H-mNY8YNuSjXsCCsb-3">
          <mxGeometry width="50" height="50" relative="1" as="geometry">
            <mxPoint x="140" y="330" as="sourcePoint" />
            <mxPoint x="190" y="280" as="targetPoint" />
          </mxGeometry>
        </mxCell>
        <mxCell id="-C5H-mNY8YNuSjXsCCsb-7" value="" style="endArrow=classic;html=1;rounded=0;exitX=0.5;exitY=1;exitDx=0;exitDy=0;entryX=0.5;entryY=0;entryDx=0;entryDy=0;" edge="1" parent="zT2eKqaUpdN-mMis6bii-5">
          <mxGeometry width="50" height="50" relative="1" as="geometry">
            <mxPoint x="99.8" y="200" as="sourcePoint" />
            <mxPoint x="99.8" y="230" as="targetPoint" />
          </mxGeometry>
        </mxCell>
        <mxCell id="-C5H-mNY8YNuSjXsCCsb-8" value="" style="endArrow=classic;html=1;rounded=0;exitX=0.5;exitY=1;exitDx=0;exitDy=0;entryX=0.5;entryY=0;entryDx=0;entryDy=0;" edge="1" parent="zT2eKqaUpdN-mMis6bii-5">
          <mxGeometry width="50" height="50" relative="1" as="geometry">
            <mxPoint x="99.8" y="290" as="sourcePoint" />
            <mxPoint x="99.8" y="320" as="targetPoint" />
          </mxGeometry>
        </mxCell>
        <mxCell id="-C5H-mNY8YNuSjXsCCsb-9" value="" style="endArrow=classic;html=1;rounded=0;" edge="1" parent="1" source="zT2eKqaUpdN-mMis6bii-2" target="-C5H-mNY8YNuSjXsCCsb-3">
          <mxGeometry width="50" height="50" relative="1" as="geometry">
            <mxPoint x="560" y="420" as="sourcePoint" />
            <mxPoint x="610" y="370" as="targetPoint" />
          </mxGeometry>
        </mxCell>
        <mxCell id="-C5H-mNY8YNuSjXsCCsb-10" value="" style="endArrow=classic;html=1;rounded=0;" edge="1" parent="1" source="zT2eKqaUpdN-mMis6bii-2" target="-C5H-mNY8YNuSjXsCCsb-4">
          <mxGeometry width="50" height="50" relative="1" as="geometry">
            <mxPoint x="560" y="420" as="sourcePoint" />
            <mxPoint x="610" y="370" as="targetPoint" />
          </mxGeometry>
        </mxCell>
        <mxCell id="-C5H-mNY8YNuSjXsCCsb-11" value="" style="endArrow=classic;html=1;rounded=0;" edge="1" parent="1" source="-C5H-mNY8YNuSjXsCCsb-2" target="zT2eKqaUpdN-mMis6bii-2">
          <mxGeometry width="50" height="50" relative="1" as="geometry">
            <mxPoint x="560" y="420" as="sourcePoint" />
            <mxPoint x="610" y="370" as="targetPoint" />
          </mxGeometry>
        </mxCell>
        <mxCell id="-C5H-mNY8YNuSjXsCCsb-12" value="" style="endArrow=classic;html=1;rounded=0;" edge="1" parent="1" source="-C5H-mNY8YNuSjXsCCsb-5" target="zT2eKqaUpdN-mMis6bii-1">
          <mxGeometry width="50" height="50" relative="1" as="geometry">
            <mxPoint x="560" y="420" as="sourcePoint" />
            <mxPoint x="610" y="370" as="targetPoint" />
          </mxGeometry>
        </mxCell>
      </root>
    </mxGraphModel>
  </diagram>
</mxfile>
